HIERARCHY
ROOT Model_Hips
{
	OFFSET 0.000000 96.915077 0.000000
	CHANNELS 6 Xposition Yposition Zposition Xrotation Yrotation Zrotation
	JOINT Model_Spine
	{
		OFFSET 0.000000 11.137703 -1.289900
		CHANNELS 3 Xrotation Yrotation Zrotation
		JOINT Model_Spine1
		{
			OFFSET 0.000000 12.993942 -1.504922
			CHANNELS 3 Xrotation Yrotation Zrotation
			JOINT Model_Spine2
			{
				OFFSET 0.000000 14.850220 -1.719911
				CHANNELS 3 Xrotation Yrotation Zrotation
				JOINT Model_Neck
				{
					OFFSET 0.000000 16.706543 -1.934903
					CHANNELS 3 Xrotation Yrotation Zrotation
					JOINT Model_Head
					{
						OFFSET 0.000000 10.471298 2.002100
						CHANNELS 3 Xrotation Yrotation Zrotation
						JOINT Model_HeadTop_End
						{
							OFFSET 0.000000 20.842606 3.985100
							CHANNELS 3 Xrotation Yrotation Zrotation
							End Site
							{
								OFFSET 0.000000 21.220154 0.000000
							}
						}
					}
				}
				JOINT Model_LeftShoulder
				{
					OFFSET 7.008500 14.768600 -1.919946
					CHANNELS 3 Xrotation Yrotation Zrotation
					JOINT Model_LeftArm
					{
						OFFSET 14.126271 -3.718048 0.029937
						CHANNELS 3 Xrotation Yrotation Zrotation
						JOINT Model_LeftForeArm
						{
							OFFSET 28.282801 0.000000 0.000000
							CHANNELS 3 Xrotation Yrotation Zrotation
							JOINT Model_LeftHand
							{
								OFFSET 26.204689 0.000000 0.000000
								CHANNELS 3 Xrotation Yrotation Zrotation
								End Site
								{
									OFFSET 26.204704 0.000000 0.000000
								}
							}
						}
					}
				}
				JOINT Model_RightShoulder
				{
					OFFSET -7.008500 14.768555 -1.949840
					CHANNELS 3 Xrotation Yrotation Zrotation
					JOINT Model_RightArm
					{
						OFFSET -14.126281 -3.718018 -0.029932
						CHANNELS 3 Xrotation Yrotation Zrotation
						JOINT Model_RightForeArm
						{
							OFFSET -28.283798 0.000000 -0.000001
							CHANNELS 3 Xrotation Yrotation Zrotation
							JOINT Model_RightHand
							{
								OFFSET -26.204193 0.000000 -0.000001
								CHANNELS 3 Xrotation Yrotation Zrotation
								End Site
								{
									OFFSET -26.204208 0.000000 -0.000001
								}
							}
						}
					}
				}
			}
		}
	}
	JOINT Model_LeftUpLeg
	{
		OFFSET 8.327700 -6.193199 -0.402800
		CHANNELS 3 Xrotation Yrotation Zrotation
		JOINT Model_LeftLeg
		{
			OFFSET 0.735802 -42.108742 -0.610721
			CHANNELS 3 Xrotation Yrotation Zrotation
			JOINT Model_LeftFoot
			{
				OFFSET -0.735806 -36.833748 -0.172876
				CHANNELS 3 Xrotation Yrotation Zrotation
				JOINT Model_LeftToeBase
				{
					OFFSET -0.565857 -11.977769 16.297714
					CHANNELS 3 Xrotation Yrotation Zrotation
					JOINT Model_LeftToe_End
					{
						OFFSET -0.111712 -0.312793 7.857784
						CHANNELS 3 Xrotation Yrotation Zrotation
						End Site
						{
							OFFSET -0.111712 -0.312793 7.857784
						}
					}
				}
			}
		}
	}
	JOINT Model_RightUpLeg
	{
		OFFSET -8.327700 -6.193199 -0.516500
		CHANNELS 3 Xrotation Yrotation Zrotation
		JOINT Model_RightLeg
		{
			OFFSET -0.735785 -42.108738 -0.434061
			CHANNELS 3 Xrotation Yrotation Zrotation
			JOINT Model_RightFoot
			{
				OFFSET 0.735776 -36.833748 -0.021630
				CHANNELS 3 Xrotation Yrotation Zrotation
				JOINT Model_RightToeBase
				{
					OFFSET 0.565817 -11.977745 15.903093
					CHANNELS 3 Xrotation Yrotation Zrotation
					JOINT Model_RightToe_End
					{
						OFFSET 0.111702 -0.312791 7.811342
						CHANNELS 3 Xrotation Yrotation Zrotation
						End Site
						{
							OFFSET 0.111702 -0.312791 7.811342
						}
					}
				}
			}
		}
	}
}
MOTION
Frames: 10
Frame Time: 0.016667
-1.325468 87.741608 1.147916 7.264875 -11.425537 12.178366 10.944952 1.177880 -0.831654 0.873918 0.398865 -0.529158 0.871125 0.414152 -0.535545 -6.877233 -0.819288 -2.459210 -6.873334 -0.847068 -2.462433 0.000000 0.000000 -0.000001 3.316521 2.027999 -18.396624 24.600559 3.460653 -47.499164 0.000020 -64.556209 0.000019 -0.000000 0.000002 -0.000001 0.697507 8.950708 14.543909 8.146975 29.405750 51.297866 -0.000008 51.066469 0.000013 0.000002 -0.000002 0.000001 -45.304863 -2.362080 17.088338 122.822538 -10.776031 -1.299775 -14.193285 -12.554446 -6.524880 -4.301527 0.000005 0.000000 -0.000002 0.000000 -0.000000 -0.122043 -6.996395 6.834776 36.287374 9.185951 2.521678 -23.299879 8.662010 -29.809370 -18.379484 0.000002 -0.000004 0.000001 0.000000 0.000000 
-1.215878 89.342964 6.611225 8.894960 -14.127320 14.202187 9.941225 4.700878 -2.845610 0.623018 1.438312 -0.851689 0.612271 1.455248 -0.862299 -6.993598 -1.154608 -2.595720 -6.978815 -1.185522 -2.623610 0.000000 -0.000000 0.000000 3.417900 2.819977 -17.467007 28.744971 4.127917 -47.440496 0.000004 -66.422333 0.000012 -0.000002 -0.000000 -0.000001 0.827553 8.158535 13.135413 10.230267 32.078240 48.661734 0.000021 60.020936 0.000003 -0.000000 0.000001 -0.000001 -48.432950 0.415964 15.340880 116.200287 -5.322466 -1.059431 -16.370433 -12.276429 -5.499959 -1.967620 -0.000001 0.000000 -0.000003 0.000000 0.000000 3.740900 -9.250896 1.976775 30.356427 9.757462 2.792184 -18.275348 11.020592 -26.562776 -25.663743 0.000009 -0.000001 0.000001 0.000000 0.000000 
-1.180220 90.810318 11.978292 10.494316 -15.821491 16.079093 9.262651 7.415528 -4.563571 0.325229 2.240554 -1.179382 0.306777 2.253991 -1.200220 -7.233607 -1.435404 -2.758029 -7.208771 -1.467627 -2.808983 -0.000000 -0.000000 0.000000 3.428526 3.157332 -16.693295 32.032610 4.988541 -47.302506 -0.000037 -68.061449 -0.000044 -0.000001 -0.000002 -0.000001 0.946909 6.836632 12.158154 11.895546 33.747917 45.409041 -0.000007 68.597714 -0.000014 0.000000 -0.000000 0.000002 -51.078771 2.126573 13.387585 109.343549 -0.526436 -1.056579 -18.725551 -12.143346 -2.925153 0.214185 0.000003 -0.000003 -0.000000 0.000001 0.000001 6.874803 -11.779466 -1.593907 24.218036 8.875352 2.466666 -12.986543 11.735295 -23.510700 -27.799707 -0.000000 -0.000002 0.000000 0.000000 0.000000 
-1.195709 92.164558 17.273666 12.001570 -16.870496 17.741322 8.765781 9.528011 -6.012738 0.024944 2.867107 -1.484075 -0.000087 2.874050 -1.518182 -7.526431 -1.670628 -2.940620 -7.492489 -1.703242 -3.012532 0.000000 -0.000000 -0.000000 3.392704 3.208320 -16.037752 34.798192 5.908911 -47.207546 0.000005 -69.563844 -0.000007 0.000003 -0.000002 0.000001 1.036722 5.310472 11.455550 12.970935 34.658419 42.013634 0.000004 76.697417 0.000014 0.000000 0.000001 0.000001 -52.968363 2.951052 11.459819 101.960135 2.532928 -1.246785 -20.594965 -12.131338 0.306329 2.118095 -0.000006 0.000006 0.000001 -0.000001 -0.000001 8.671442 -14.021684 -4.758440 19.306938 8.015123 2.785290 -5.171825 11.229132 -21.874538 -31.037343 -0.007632 0.100977 0.000000 -0.000000 0.000000 
-1.295929 93.405083 22.503525 13.275105 -17.300143 19.114749 8.348058 10.953760 -7.166680 -0.230307 3.290209 -1.728235 -0.259671 3.288809 -1.776350 -7.845116 -1.847968 -3.144684 -7.803424 -1.880354 -3.234063 -0.000000 0.000000 -0.000000 3.322961 2.985454 -15.525635 37.000989 6.829983 -47.125580 0.000005 -70.919213 0.000036 0.000001 -0.000000 0.000000 1.105448 3.696115 11.039056 13.005233 34.772339 38.855003 0.000033 84.043832 -0.000009 0.000002 -0.000001 0.000002 -54.111221 2.855302 9.548402 93.939956 4.064222 -1.439298 -21.859018 -11.861293 2.064581 3.517981 0.000002 -0.000009 -0.000001 -0.000002 0.000000 10.678421 -15.836789 -6.728385 13.262134 9.218151 2.774787 7.160262 8.362041 -21.794669 -41.563385 0.063317 -0.185769 0.000001 0.000001 0.000000 
-1.513985 94.564133 27.715981 14.172620 -17.246221 20.076166 7.939700 11.703857 -7.952237 -0.385873 3.508449 -1.877614 -0.417178 3.499000 -1.937057 -8.150850 -1.962895 -3.360588 -8.103180 -1.994913 -3.462561 -0.000000 -0.000000 0.000000 3.237963 2.585478 -15.140289 38.708383 7.677326 -47.069012 0.000003 -72.125459 0.000037 -0.000002 -0.000003 -0.000001 1.164588 2.156639 10.858157 11.739355 34.232488 36.371181 -0.001942 90.377910 0.001034 0.000002 -0.000000 0.000002 -54.410305 2.054034 7.631895 85.099417 4.515887 -1.416328 -22.258009 -11.288118 2.346037 4.238430 0.000001 0.000016 -0.000004 0.000000 -0.000003 15.959613 -17.326682 -7.058147 0.799570 9.837952 2.139199 24.081360 4.828577 -16.506429 -49.447014 1.570237 -2.439545 -0.000000 0.000001 -0.000000 
-1.862471 95.665176 32.980076 14.571647 -16.895289 20.467970 7.531467 11.851713 -8.255879 -0.400075 3.543709 -1.913892 -0.431500 3.528920 -1.978788 -8.403041 -2.019825 -3.567828 -8.351618 -2.051864 -3.676430 0.000000 0.000000 0.000000 3.157754 2.162629 -14.813722 40.060323 8.379037 -47.084906 -0.000032 -73.177103 -0.000021 0.000001 0.000000 0.000001 1.218613 0.860825 10.810334 9.305858 33.265053 34.906208 -0.000080 95.503796 0.000061 0.000001 0.000001 0.000003 -53.590675 0.818195 5.831122 75.259341 4.011945 -1.020738 -21.444928 -10.664471 2.556721 4.234012 -0.000001 -0.000014 0.000001 -0.000001 -0.000000 17.227798 -17.588395 -7.756114 1.011828 9.130578 0.763195 28.922491 1.750557 -13.190693 -38.142744 0.862801 -1.653790 0.000001 -0.000000 -0.000000 
-2.323891 96.636482 38.327377 14.403493 -16.447890 20.289885 7.206873 11.503849 -8.114179 -0.263045 3.432106 -1.842135 -0.293514 3.416346 -1.905100 -8.568561 -2.030352 -3.740165 -8.515899 -2.063195 -3.848944 -0.000000 -0.000000 0.000000 3.098564 1.871024 -14.435929 41.203615 8.883389 -47.236072 0.000012 -74.056654 0.000039 0.000001 0.000000 0.000001 1.261080 -0.057950 10.771646 6.262241 32.046507 34.596756 -0.000047 99.322179 0.000036 -0.000002 0.000001 0.000002 -51.475478 -0.542499 4.372443 64.628869 3.042906 -0.232202 -19.961093 -10.131716 3.497437 3.622204 -0.000002 0.000007 -0.000000 -0.000001 -0.000000 19.813201 -17.096536 -7.308325 1.252157 6.243555 -1.146950 31.629530 -0.719859 -12.210411 -10.333222 -0.293193 2.972119 -0.000002 -0.000000 0.000001 
-2.869194 97.393532 43.762501 13.669010 -16.036622 19.599132 7.068920 10.758516 -7.603534 -0.005740 3.214180 -1.690004 -0.034652 3.201962 -1.744514 -8.627527 -2.009656 -3.854265 -8.576193 -2.044191 -3.957119 0.000000 -0.000000 0.000000 3.065332 1.801227 -13.891888 42.225353 9.172836 -47.576239 -0.000023 -74.737098 -0.000027 -0.000000 -0.000001 -0.000001 1.282085 -0.534898 10.642944 3.428195 30.665685 35.327723 0.000087 101.845524 -0.000124 -0.000002 0.000001 -0.000001 -48.143258 -1.696541 3.503665 53.650702 2.398942 0.811596 -18.916721 -9.684599 5.170137 2.641124 0.000008 0.000002 -0.000001 0.000002 -0.000000 21.225591 -15.666760 -6.559053 6.087304 2.776053 -3.283420 30.613263 -2.726392 -13.397291 -1.526342 -0.000001 -0.000003 0.000001 -0.000000 -0.000001 
-3.453640 97.802200 49.191963 12.493482 -15.801344 18.671454 7.200857 9.780797 -6.994878 0.307219 2.928226 -1.498987 0.280328 2.922641 -1.541458 -8.575602 -1.972789 -3.898230 -8.527826 -2.009649 -3.990269 -0.000000 -0.000000 -0.000000 3.046756 1.940878 -13.116151 43.113329 9.277880 -48.120001 0.000080 -75.199044 0.000057 0.000001 -0.000002 -0.000002 1.279901 -0.595469 10.394567 1.607241 29.201176 36.784537 -0.000007 103.193414 -0.000003 -0.000002 0.000001 0.000001 -44.030630 -2.301368 3.227694 42.879385 2.245946 1.865884 -18.892191 -9.275477 7.047514 1.549312 -0.000011 0.000012 0.000000 -0.000002 -0.000001 21.362873 -13.538116 -5.827309 14.887832 -0.396004 -5.315092 27.490161 -3.642475 -14.567711 -0.688483 0.000002 -0.000006 -0.000001 0.000000 -0.000001 
